<svg width="30" height="30" viewBox="0 0 30 30" fill="none" xmlns="http://www.w3.org/2000/svg">
<g clip-path="url(#clip0_1_1003)">
<path d="M14.7651 30H12.4214C11.2582 30 10.312 29.0538 10.312 27.8906V13.3594C10.312 12.1962 11.2582 11.25 12.4214 11.25H14.7651C15.9283 11.25 16.8745 12.1962 16.8745 13.3594V27.8906C16.8745 29.0538 15.9282 30 14.7651 30Z" fill="#FF82AC"/>
<path d="M5.85889 30H3.51514C2.35199 30 1.40576 29.0538 1.40576 27.8906V18.0469C1.40576 16.8837 2.35199 15.9375 3.51514 15.9375H5.85889C7.02204 15.9375 7.96827 16.8837 7.96827 18.0469V27.8906C7.96827 29.0538 7.02198 30 5.85889 30Z" fill="#FF82AC"/>
<path d="M23.6716 30H21.3279C20.1647 30 19.2185 29.0538 19.2185 27.8906V8.4375H17.9306C17.3285 8.4375 16.7981 8.09766 16.5465 7.55062C16.2949 7.00359 16.382 6.3798 16.7739 5.9226C16.7784 5.91738 16.7829 5.91217 16.7875 5.90707L21.8015 0.311836C21.9794 0.113379 22.2333 0 22.4997 0C22.7662 0 23.0201 0.113379 23.198 0.311836L28.212 5.90707C28.2166 5.91217 28.2211 5.91738 28.2256 5.9226C28.6175 6.37975 28.7046 7.00359 28.453 7.55062C28.2014 8.09766 27.671 8.4375 27.0689 8.4375H25.781V27.8906C25.781 29.0538 24.8347 30 23.6716 30Z" fill="#FF82AC"/>
</g>
<defs>
<clipPath id="clip0_1_1003">
<rect width="30" height="30" fill="white"/>
</clipPath>
</defs>
</svg>
