<svg width="30" height="26" viewBox="0 0 30 26" fill="none" xmlns="http://www.w3.org/2000/svg">
<path d="M27.5 4.25H21.25V2.99996C21.25 1.62119 20.1288 0.499939 18.75 0.499939H11.25C9.87123 0.499939 8.74998 1.62113 8.74998 2.99996V4.24994H2.50002C1.12119 4.25 0 5.3712 0 6.74997V10.5C0 11.8788 1.12119 13 2.50002 13H12.5V12.375C12.5 12.0295 12.7796 11.75 13.1251 11.75H16.8751C17.2205 11.75 17.5001 12.0295 17.5001 12.375V13H27.5001C28.8788 13 30 11.8788 30 10.5V6.74997C30 5.3712 28.8788 4.25 27.5 4.25ZM18.75 4.25H11.25V2.99996H18.75V4.25Z" fill="#FFBB38"/>
<path d="M29.6533 13.6744C29.4403 13.5688 29.1858 13.5932 28.9978 13.736C28.5534 14.0723 28.0358 14.2499 27.4999 14.2499H17.5V16.1249C17.5 16.4704 17.2205 16.75 16.875 16.75H13.125C12.7795 16.75 12.5 16.4704 12.5 16.1249V14.2499H2.50002C1.96412 14.2499 1.44656 14.0723 1.00219 13.736C0.813574 13.592 0.559687 13.5676 0.346641 13.6744C0.134297 13.78 0 13.9966 0 14.2341V23C0 24.3788 1.12119 25.5 2.50002 25.5H27.5C28.8788 25.5 30.0001 24.3788 30.0001 23V14.2341C30 13.9966 29.8657 13.78 29.6533 13.6744Z" fill="#FFBB38"/>
</svg>
