<svg width="30" height="30" viewBox="0 0 30 30" fill="none" xmlns="http://www.w3.org/2000/svg">
<g clip-path="url(#clip0_1_990)">
<path d="M29.9769 5.22375C29.8493 3.77367 28.089 3.12802 27.0586 4.15857L25.5868 5.63039C25.2577 5.95945 24.7174 5.96484 24.3823 5.64234C24.0347 5.30771 24.0527 4.73121 24.3945 4.38949L25.8421 2.94187C26.8715 1.91244 26.2286 0.151461 24.7773 0.0236678C20.8328 -0.323149 17.7042 3.34523 18.7503 7.23515L0.832092 25.1534C-0.277439 26.2628 -0.277615 28.0588 0.832092 29.1685C1.9391 30.2754 3.74022 30.2755 4.84723 29.1685L22.7608 11.2549C26.6043 12.2999 30.3274 9.20414 29.9769 5.22375Z" fill="#16DBCC"/>
<path d="M1.87473 6.88235C1.91675 6.9652 1.97159 7.0409 2.03727 7.10659L4.58071 9.64997C4.92395 9.99321 5.48042 9.99315 5.8236 9.64997L7.11706 8.35651L9.58726 10.8267L6.94638 13.4675C6.26206 14.1531 6.26265 15.2681 6.94696 15.953L7.22411 16.2301L16.2378 7.21703L15.9606 6.93989C15.2727 6.25323 14.1628 6.25223 13.474 6.93989L10.8301 9.58375L8.35995 7.11356L9.65341 5.8201C9.99665 5.47692 9.99665 4.92039 9.65341 4.57721L7.11003 2.03377C7.04364 1.96733 6.967 1.91201 6.88309 1.86989L3.6322 0.236761C3.29352 0.0666046 2.88419 0.13264 2.61618 0.400648L0.394891 2.62188C0.12618 2.89059 0.0606138 3.30151 0.232352 3.64053L1.87473 6.88235Z" fill="#16DBCC"/>
<path d="M21.3823 15.1198L15.126 21.3762L22.311 28.563C24.0394 30.2914 26.8378 30.2919 28.5667 28.563C30.2917 26.8381 30.2917 24.0315 28.5667 22.3072L21.3823 15.1198ZM26.5307 26.5252C26.1897 26.8674 25.6318 26.8689 25.288 26.5252L20.2996 21.5367C19.9562 21.1934 19.9562 20.6368 20.2996 20.294C20.6429 19.9507 21.1995 19.9507 21.5423 20.294L26.5307 25.2825C26.874 25.6258 26.874 26.1818 26.5307 26.5252Z" fill="#16DBCC"/>
</g>
<defs>
<clipPath id="clip0_1_990">
<rect width="30" height="30" fill="white"/>
</clipPath>
</defs>
</svg>
