<svg width="30" height="30" viewBox="0 0 30 30" fill="none" xmlns="http://www.w3.org/2000/svg">
<g clip-path="url(#clip0_1_962)">
<path d="M14.7862 14.4511C16.7715 14.4511 18.4906 13.739 19.8952 12.3342C21.2999 10.9295 22.0119 9.21086 22.0119 7.22531C22.0119 5.24046 21.2999 3.52156 19.895 2.11646C18.4901 0.712049 16.7713 0 14.7862 0C12.8006 0 11.082 0.712049 9.67731 2.11669C8.27267 3.52133 7.56039 5.24023 7.56039 7.22531C7.56039 9.21086 8.27267 10.9298 9.67754 12.3344C11.0824 13.7388 12.8013 14.4511 14.7862 14.4511Z" fill="#396AFF"/>
<path d="M27.4293 23.0684C27.3888 22.4839 27.3069 21.8462 27.1863 21.1728C27.0645 20.4944 26.9077 19.8531 26.72 19.2669C26.5262 18.6611 26.2625 18.0628 25.9366 17.4895C25.5983 16.8944 25.2009 16.3762 24.7551 15.9498C24.2889 15.5037 23.718 15.145 23.0579 14.8834C22.4001 14.6232 21.6711 14.4913 20.8913 14.4913C20.5851 14.4913 20.2889 14.617 19.717 14.9894C19.3649 15.219 18.9532 15.4845 18.4936 15.7781C18.1006 16.0285 17.5682 16.2631 16.9106 16.4755C16.2691 16.6831 15.6177 16.7884 14.9748 16.7884C14.3318 16.7884 13.6807 16.6831 13.0384 16.4755C12.3816 16.2633 11.8492 16.0287 11.4566 15.7783C11.0014 15.4874 10.5894 15.2219 10.2321 14.9892C9.66084 14.6168 9.36444 14.4911 9.0582 14.4911C8.27818 14.4911 7.54942 14.6232 6.89184 14.8837C6.23221 15.1448 5.66115 15.5035 5.19446 15.95C4.74883 16.3766 4.35127 16.8946 4.01344 17.4895C3.68774 18.0628 3.42407 18.6609 3.22998 19.2672C3.04252 19.8533 2.88574 20.4944 2.76398 21.1728C2.64336 21.8453 2.56142 22.4832 2.5209 23.0691C2.48108 23.6432 2.46094 24.2389 2.46094 24.8407C2.46094 26.4067 2.95875 27.6744 3.94042 28.6094C4.90996 29.532 6.19284 30.0001 7.75289 30.0001H22.198C23.7581 30.0001 25.0405 29.5323 26.0103 28.6094C26.9922 27.6751 27.49 26.4071 27.49 24.8404C27.4898 24.236 27.4694 23.6397 27.4293 23.0684Z" fill="#396AFF"/>
</g>
<defs>
<clipPath id="clip0_1_962">
<rect width="29.9999" height="30" fill="white"/>
</clipPath>
</defs>
</svg>
