<svg width="25" height="25" viewBox="0 0 25 25" fill="none" xmlns="http://www.w3.org/2000/svg">
<g clip-path="url(#clip0_1_830)">
<path d="M4.81137 16.6678C5.06276 16.8174 5.27861 17.0121 5.45086 17.2371H8.70602V14.0806L7.16251 13.1236C6.81875 12.9105 6.71285 12.459 6.92596 12.1153C7.13913 11.7716 7.5904 11.6657 7.93432 11.8787L9.43838 12.8113L10.7494 11.9984C8.13449 8.41284 8.73502 3.33221 12.2157 0.464611C6.48226 -1.45611 0.46783 2.81351 0.440684 8.9456C0.426525 12.1976 2.15786 15.0882 4.81137 16.6678Z" fill="#1814F3"/>
<path d="M5.90887 18.7018H12.8418V20.3618H5.90887V18.7018Z" fill="#1814F3"/>
<path d="M10.1707 14.0806V17.2371H13.29C13.4556 17.0185 13.6623 16.8312 13.9027 16.6896C14.5684 16.2979 15.1795 15.82 15.7211 15.273C14.1912 14.9285 12.8173 14.1677 11.7248 13.1164C11.6831 13.1434 11.3829 13.3291 10.1707 14.0806Z" fill="#1814F3"/>
<path d="M17.5777 0.00235748C13.7374 0.00235748 10.5959 3.17574 10.5959 7.03294C10.5959 10.6611 13.3811 13.6655 16.9522 13.9861C21.0849 14.3553 24.5595 11.0793 24.5595 7.03294C24.5595 3.18321 21.4275 0.00235748 17.5777 0.00235748ZM18.311 10.2073V10.3603C18.311 10.7648 17.9831 11.0927 17.5787 11.0927C17.1742 11.0927 16.8463 10.7648 16.8463 10.3603V10.2901C16.5089 10.2309 16.2006 10.1046 15.8112 9.84982C15.4727 9.6284 15.3778 9.17454 15.5992 8.83605C15.8206 8.4975 16.2746 8.40269 16.613 8.62405C16.97 8.85763 17.0857 8.87584 17.5737 8.87247C18.0449 8.86934 18.2326 8.49951 18.2692 8.28151C18.3022 8.08577 18.2652 7.82555 17.9022 7.69729C17.2942 7.48232 16.6707 7.23566 16.229 6.88921C15.2231 6.10032 15.5268 4.29849 16.8464 3.81899V3.71294C16.8464 3.30849 17.1743 2.98059 17.5787 2.98059C17.9832 2.98059 18.3111 3.30849 18.3111 3.71294V3.75357C18.6719 3.85541 18.9625 4.03962 19.1622 4.24263C19.4458 4.53098 19.4419 4.99466 19.1535 5.27828C18.8653 5.56175 18.4019 5.55799 18.1184 5.27012C18.0775 5.23023 17.8519 5.04212 17.3635 5.18922C17.1685 5.24796 17.1161 5.45018 17.1047 5.51077C17.0808 5.63723 17.1148 5.72247 17.1329 5.73673C17.4092 5.95341 17.9236 6.15129 18.3904 6.31631C20.3206 6.99857 20.0855 9.56576 18.311 10.2073Z" fill="#1814F3"/>
<path d="M7.08064 22.7053C7.08064 23.9706 8.11004 25 9.37535 25C10.6407 25 11.6701 23.9706 11.6701 22.7053V21.8265H7.08064V22.7053Z" fill="#1814F3"/>
</g>
<defs>
<clipPath id="clip0_1_830">
<rect width="25" height="25" fill="white"/>
</clipPath>
</defs>
</svg>
